<svg xmlns="http://www.w3.org/2000/svg" width="96" height="70.656">
    <path fill="#87949E" fill-rule="evenodd" d="M71.727 20.969L63.257 1.89a3.179 3.179 0 0 0-2.904-1.891 3.18 3.18 0 0 0-3.098 2.473L48.888 39.33 37.88 12.57a3.179 3.179 0 0 0-2.938-1.971 3.173 3.173 0 0 0-2.92 1.93L22.014 35.904 16.609 25.08a3.177 3.177 0 0 0-5.284-.615L.737 37.184a3.18 3.18 0 0 0 2.44 5.215c.98 0 1.859-.445 2.44-1.144l7.478-8.984 6.297 12.609a3.177 3.177 0 0 0 5.764-.17l9.726-22.721 11.945 29.039a3.177 3.177 0 0 0 6.036-.501l8.471-37.311 4.586 10.333a3.179 3.179 0 0 0 2.904 1.89 3.179 3.179 0 0 0 2.903-4.47z"/>
</svg>
